<?xml version="1.0" encoding="utf-8"?>
<!-- Generator: Adobe Illustrator 15.1.0, SVG Export Plug-In . SVG Version: 6.00 Build 0)  -->
<!DOCTYPE svg PUBLIC "-//W3C//DTD SVG 1.1//EN" "http://www.w3.org/Graphics/SVG/1.1/DTD/svg11.dtd">
<svg version="1.1" id="Ebene_1" xmlns="http://www.w3.org/2000/svg" xmlns:xlink="http://www.w3.org/1999/xlink" x="0px" y="0px"
	 width="238px" height="100.001px" viewBox="0 0 238 100.001" enable-background="new 0 0 238 100.001" xml:space="preserve">
<path d="M97.658,41.864V74.63h-4.573V41.864h-8.082v-3.992h20.744v3.992H97.658z M122.167,57.557V74.63h-4.723V57.557l-9.405-19.685
	h5.043l6.933,14.858l6.933-14.858h4.778L122.167,57.557z M145.903,60.764h-4.41V74.63h-4.571V37.872c0,0,4.517-0.371,8.878-0.371
	c7.99,0,10.289,4.94,10.289,11.397C156.089,56.895,153.356,60.764,145.903,60.764 M146.424,41.29c-2.883,0-4.931,0.308-4.931,0.308
	v15.335h4.931c2.95,0,5-1.944,5-7.671C151.424,44.016,150.161,41.29,146.424,41.29 M172.582,74.999
	c-8.654,0-10.974-6.286-10.974-19.166c0-12.348,2.319-18.332,10.974-18.332c8.668,0,10.98,5.984,10.98,18.332
	C183.562,68.713,181.25,74.999,172.582,74.999 M172.582,41.327c-4.721,0-6.296,3.211-6.296,14.762
	c0,11.294,1.575,15.079,6.296,15.079c4.733,0,6.307-3.785,6.307-15.079C178.889,44.538,177.315,41.327,172.582,41.327
	 M196.746,74.999c-2.58,0-6.411-0.786-6.886-0.893v-3.829c1.262,0.254,4.513,0.802,6.828,0.802c2.688,0,4.409-2.292,4.409-6.323
	c0-4.78-0.786-7.302-4.513-7.302h-4.308v-3.832h3.785c4.249,0,4.456-4.36,4.456-6.457c0-4.154-1.308-5.838-3.934-5.838
	c-2.314,0-4.946,0.583-6.458,0.897v-3.832c0.578-0.104,3.66-0.892,6.354-0.892c5.405,0,8.506,2.313,8.506,10.139
	c0,3.566-1.263,6.724-4.038,7.719c3.19,0.209,4.679,3.727,4.679,8.877C205.627,72.059,202.567,74.999,196.746,74.999"/>
<path fill="#FF8700" d="M62.989,59.461c-0.74,0.217-1.332,0.295-2.106,0.295c-6.348,0-15.672-22.177-15.672-29.566
	c0-2.715,0.646-3.625,1.556-4.402c-7.77,0.908-17.094,3.756-20.074,7.381c-0.65,0.909-1.04,2.333-1.04,4.145
	c0,11.526,12.304,37.686,20.983,37.686C50.648,74.999,57.42,68.392,62.989,59.461"/>
<path fill="#FF8700" d="M58.938,25.01c8.036,0,16.06,1.297,16.06,5.831c0,9.193-5.825,20.331-8.804,20.331
	c-5.311,0-11.914-14.762-11.914-22.149C54.279,25.665,55.571,25.01,58.938,25.01"/>
</svg>
