<?xml version="1.0" standalone="no"?>
<!DOCTYPE svg PUBLIC "-//W3C//DTD SVG 1.1//EN" "http://www.w3.org/Graphics/SVG/1.1/DTD/svg11.dtd" >
<svg xmlns="http://www.w3.org/2000/svg">
<metadata>
This is a custom SVG webfont generated by Font Squirrel.
Copyright   : Copyright c This Font is designed by Ralph Oliver du Carrois 2005 All rights reserved
Designer    : Ralph du Carrois
Foundry     : This Font is designed by Ralph Oliver du Carrois
</metadata>
<defs>
<font id="Share-TechMonoExpRegular" horiz-adv-x="1105" >
<font-face units-per-em="2048" ascent="1655" descent="-393" />
<missing-glyph horiz-adv-x="500" />
<glyph unicode=" " />
<glyph unicode="!" d="M164 317v154h778v-154h-778zM164 727v154h778v-154h-778zM164 1061v160q111 68 229 67q55 0 170 -40t168 -40q102 0 211 74v-160q-102 -68 -229 -67q-57 0 -169 40t-169 40q-102 0 -211 -74z" />
<glyph unicode="&#x22;" d="M205 356v164q160 72 198 72h31q25 0 135.5 -41t132.5 -41h21q10 0 55 18.5t84 36.5l39 19v-164q-145 -72 -180 -72h-31q-12 0 -128 41t-138 41h-21q-12 0 -62 -18.5t-93 -36.5zM205 702v164q160 72 198 72h31q25 0 135.5 -41t132.5 -41h21q10 0 55 18.5t84 36.5l39 19 v-164q-145 -72 -180 -72h-31q-12 0 -128 41t-138 41h-21q-12 0 -62 -18.5t-93 -36.5z" />
<glyph unicode="#" d="M82 0l364 1434h228l350 -1434h-942zM303 154h500l-244 1126z" />
<glyph unicode="$" d="M471 -225v737h164v-737h-164zM471 922v737h164v-737h-164z" />
<glyph unicode="%" d="M154 717l286 717h226l286 -717l-286 -717h-230zM332 717l221 -574l221 574l-221 573z" />
<glyph unicode="&#x26;" d="M455 -225h194v-185h-194v185z" />
<glyph unicode="'" d="M451 532v205h204v-205h-204z" />
<glyph unicode="(" d="M455 1249v185h194v-185h-194z" />
<glyph unicode=")" d="M365 1296v60q0 86 50 130t132 44h12q82 0 132 -44t50 -130v-60q0 -84 -51 -129t-131 -45h-12q-80 0 -131 45t-51 129zM477 1294q0 -78 70 -77h12q66 -1 66 77v64q0 78 -66 78h-12q-70 0 -70 -78v-64z" />
<glyph unicode="*" d="M156 1225l211 301h235l-260 -301h-186zM504 1225l211 301h235l-260 -301h-186z" />
<glyph unicode="+" d="M371 123h151v-297q0 -57 66 -57h145v-138h-182q-33 0 -59.5 6.5t-56 23.5t-47 59t-17.5 106v297z" />
<glyph unicode="," d="M231 1462h199l123 -153l123 153h196l-229 -276h-180z" />
<glyph unicode="-" d="M219 563v154h666v-154h-666z" />
<glyph unicode="." d="M465 0v1024h174v-1024h-174z" />
<glyph unicode="/" d="M143 -205l656 1864h164l-656 -1864h-164z" />
<glyph unicode="0" d="M61 0v983h492v-491h491v-492h-983zM799 737v246h245v-246h-245z" />
<glyph unicode="1" d="M451 532v205h204v-205h-204z" />
<glyph unicode="2" d="M451 532v205h204v-205h-204z" />
<glyph unicode="3" d="M451 532v205h204v-205h-204z" />
<glyph unicode="4" d="M451 532v205h204v-205h-204z" />
<glyph unicode="5" d="M451 532v205h204v-205h-204z" />
<glyph unicode="6" d="M451 532v205h204v-205h-204z" />
<glyph unicode="7" d="M451 532v205h204v-205h-204z" />
<glyph unicode="8" d="M451 532v205h204v-205h-204z" />
<glyph unicode="9" d="M451 532v205h204v-205h-204z" />
<glyph unicode=":" d="M451 532v205h204v-205h-204z" />
<glyph unicode=";" d="M451 532v205h204v-205h-204z" />
<glyph unicode="&#x3c;" d="M164 0v154h778v-154h-778zM164 573v215l778 367v-188l-631 -279l631 -239v-193z" />
<glyph unicode="=" d="M164 143l133 215h-133v154h227l160 256h-387v154h481l133 215h164l-133 -215h133v-154h-227l-160 -256h387v-154h-481l-133 -215h-164z" />
<glyph unicode="&#x3e;" d="M164 0v154h778v-154h-778zM164 256v193l631 239l-631 279v188l778 -367v-215z" />
<glyph unicode="?" d="M29 211l145 145q-25 65 -24 160v201q0 98 24 162l-145 147l116 117l140 -139q76 41 213 40h108q133 0 213 -43l142 142l116 -117l-149 -149q27 -61 26 -160v-201q0 -94 -24 -158l147 -147l-116 -117l-138 137q-82 -43 -217 -43h-108q-141 0 -215 43l-138 -137zM324 475 q0 -133 153 -133h150q153 0 153 133v283q0 133 -153 133h-150q-154 0 -153 -133v-283z" />
<glyph unicode="@" d="M51 348v737q0 172 88 260.5t246 88.5h336q158 0 246 -88.5t88 -260.5v-737q0 -172 -88 -260t-246 -88h-336q-158 0 -246 88t-88 260zM199 301q0 -68 49 -120t137 -52h336q88 0 137 52t49 120v829q0 68 -50 120.5t-136 52.5h-336q-88 0 -137 -52.5t-49 -120.5v-829z M365 326v786h219q209 0 209 -176v-127q0 -90 -50.5 -138t-142.5 -48h-121v-297h-114zM479 725h105q88 0 88 82v129q0 43 -20.5 59.5t-67.5 16.5h-105v-287z" />
<glyph unicode="A" d="M276 670v512q0 129 70 195.5t189 66.5h36q119 0 188.5 -66.5t69.5 -195.5v-512q0 -129 -69.5 -195.5t-188.5 -66.5h-36q-119 0 -189 66.5t-70 195.5zM428 655q0 -51 26.5 -83.5t80.5 -32.5h36q53 0 80 32.5t27 83.5v541q0 51 -26.5 84t-80.5 33h-36q-53 0 -80 -33 t-27 -84v-541z" />
<glyph unicode="B" d="M299 1217v139l186 78h168v-883h152v-131h-490v131h187v745z" />
<glyph unicode="C" d="M307 420v149l230 314q68 92 85 131t17 114v74q0 100 -125 101h-176v131h162q152 0 220 -58.5t68 -185.5v-47q0 -82 -13 -135.5t-28.5 -77t-68.5 -94.5l-211 -285h332v-131h-492z" />
<glyph unicode="D" d="M324 420v131h190q115 0 115 102v113q0 49 -31 77.5t-82 28.5h-145v132h129q49 0 80.5 27.5t31.5 78.5v86q0 59 -26.5 83t-85.5 24h-176v131h178q264 0 264 -240v-72q0 -117 -90 -178q104 -55 104 -188v-92q0 -129 -60.5 -186.5t-199.5 -57.5h-196z" />
<glyph unicode="E" d="M274 659v152l152 623h141l-149 -643h157l15 292h137v-292h102v-132h-102v-239h-152v239h-301z" />
<glyph unicode="F" d="M319 420v131h201q115 0 115 106v146q0 49 -32 78.5t-81 29.5h-186v523h430v-129h-281v-263h50q117 0 184 -60t67 -183v-135q0 -129 -61 -186.5t-199 -57.5h-207z" />
<glyph unicode="G" d="M281 682v479q0 133 70.5 203t201.5 70h199v-131h-203q-57 0 -88 -30t-31 -77v-131h131q262 0 262 -252v-131q0 -127 -68.5 -194.5t-172.5 -67.5h-60q-104 0 -172.5 67.5t-68.5 194.5zM430 668q0 -117 100 -117h43q100 0 101 117v159q0 49 -29 78t-84 29h-131v-266z" />
<glyph unicode="H" d="M317 1300v134h469v-166l-241 -848h-152l250 880h-326z" />
<glyph unicode="I" d="M268 664v96q0 135 99 188q-80 57 -80 178v68q0 121 70.5 180.5t191.5 59.5h8q119 0 190.5 -59.5t71.5 -180.5v-68q0 -121 -80 -178q98 -53 99 -188v-96q0 -244 -281 -244h-8q-281 0 -281 244zM418 659q0 -110 98 -110h2h57q113 0 113 110v111q0 51 -27.5 80t-78.5 29h-56 q-51 0 -79.5 -29t-28.5 -80v-111zM434 1108q0 -94 94 -100h39q104 0 105 100v86q0 59 -23 85t-80 26h-45q-49 0 -69.5 -27t-20.5 -84v-86z" />
<glyph unicode="J" d="M281 1049v125q0 127 68.5 194.5t172.5 67.5h60q104 0 172.5 -68t68.5 -194v-480q0 -133 -69.5 -202.5t-200.5 -69.5h-201v131h205q57 0 88 29.5t31 76.5v138h-133q-262 0 -262 252zM430 1034q0 -49 29 -77.5t84 -28.5h133v260q0 117 -103 117h-43q-100 0 -100 -117v-154z " />
<glyph unicode="K" d="M199 395l237 240l-237 239l114 115l240 -237l240 237l114 -115l-237 -239l237 -240l-114 -114l-240 237l-240 -237z" />
<glyph unicode="L" d="M88 1280v154h930v-154h-187v-1065q0 -33 14.5 -47t53.5 -14h31v-154h-103q-70 0 -122 49t-52 156v1075h-225v-1280h-178v1280h-162z" />
<glyph unicode="M" d="M158 -156l344 703l-318 692v195h740v-154h-559l331 -733l-362 -744h612v-151h-788v192z" />
<glyph unicode="N" d="M27 610v41q0 164 63.5 243t224.5 79h21q145 0 221 -109q76 109 213 109h21q162 0 225 -79t63 -243v-30q0 -164 -64.5 -248t-223.5 -84h-21h-3q-139 0 -214 108q-75 -108 -214 -108h-3h-21q-162 0 -225 78.5t-63 242.5zM188 561q4 -70 34 -99.5t104 -29.5h14 q121 0 129 133v119q0 145 -129 145h-14q-78 0 -108 -33.5t-30 -111.5v-123zM637 578q0 -145 129 -146h14q78 0 108 34t30 112v122q-4 70 -34 99.5t-104 29.5h-14q-121 0 -129 -133v-118z" />
<glyph unicode="O" d="M117 727v209l434 334l436 -334v-209l-348 279v-744h-176v742z" />
<glyph unicode="P" d="M49 674v168h735l-276 350h215l334 -434l-334 -436h-215l278 352h-737z" />
<glyph unicode="Q" d="M129 563l72 543l544 72l150 -150l-444 -49l524 -524l-123 -123l-522 524l-51 -442z" />
<glyph unicode="R" d="M129 463l524 522l-442 51l149 150l543 -72l72 -545l-150 -149l-49 444l-524 -524z" />
<glyph unicode="S" d="M451 532v205h204v-205h-204z" />
<glyph unicode="T" d="M451 532v205h204v-205h-204z" />
<glyph unicode="U" d="M109 666v153h116v615h398q184 0 278 -75t94 -245v-790q0 -176 -80.5 -250t-267.5 -74h-422v666h-116zM403 154h263q78 0 114.5 35.5t36.5 113.5v830q0 68 -41 107.5t-108 39.5h-265v-461h238v-153h-238v-512z" />
<glyph unicode="V" d="M143 614v164l185 88v568h178v-482l231 113v-164l-231 -113v-632h457v-156h-635v702z" />
<glyph unicode="W" d="M182 0v1434h178v-267h209q352 0 353 -319v-234q0 -323 -347 -323h-2h-213v-291h-178zM360 444h234q78 0 113.5 36t35.5 114v272q0 78 -35.5 113t-113.5 35h-234v-570z" />
<glyph unicode="X" d="M205 1008v77q0 174 95 261.5t273 87.5h293v-156h-313q-76 0 -123 -45t-47 -109v-155q0 -63 41 -105.5t106 -42.5h62q145 0 226 -84t81 -254v-135q0 -174 -95 -261t-274 -87h-290v156h311q76 0 123 45t47 108v213q0 61 -32 99t-95 38h-62q-152 0 -239.5 89.5t-87.5 259.5z M258 1731h199l123 -138l122 138h197l-229 -236h-181z" />
<glyph unicode="Y" d="M84 1434h197l276 -580l277 580h186l-379 -768v-666h-184v666zM381 1487l213 235h227l-270 -235h-170z" />
<glyph unicode="Z" d="M180 0v180l561 1102h-514v152h699v-181l-559 -1101h538v-152h-725zM266 1731h199l123 -138l123 138h196l-229 -236h-180z" />
<glyph unicode="[" d="M451 532v205h204v-205h-204z" />
<glyph unicode="\" d="M451 532v205h204v-205h-204z" />
<glyph unicode="]" d="M451 532v205h204v-205h-204z" />
<glyph unicode="^" d="M451 532v205h204v-205h-204z" />
<glyph unicode="_" d="M451 532v205h204v-205h-204z" />
<glyph unicode="`" d="M399 481v318h308v-318h-308z" />
<glyph unicode="a" d="M276 250v512q0 129 70 195.5t189 66.5h36q119 0 188.5 -66.5t69.5 -195.5v-512q0 -129 -69.5 -195.5t-188.5 -66.5h-36q-119 0 -189 66.5t-70 195.5zM428 236q0 -51 26.5 -84t80.5 -33h36q53 0 80 33t27 84v540q0 51 -26.5 84t-80.5 33h-36q-53 0 -80 -33t-27 -84v-540z " />
<glyph unicode="b" d="M299 797v139l186 78h168v-883h152v-131h-490v131h187v746z" />
<glyph unicode="c" d="M307 0v150l230 313q68 92 85 131t17 115v73q0 100 -125 101h-176v131h162q152 0 220 -58.5t68 -185.5v-47q0 -82 -13 -135t-28.5 -77t-68.5 -95l-211 -285h332v-131h-492z" />
<glyph unicode="d" d="M324 0v131h190q115 0 115 102v113q0 49 -31 78t-82 29h-145v131h129q49 0 80.5 27.5t31.5 78.5v86q0 59 -26.5 83t-85.5 24h-176v131h178q264 0 264 -240v-72q0 -117 -90 -178q104 -55 104 -188v-92q0 -129 -60.5 -186.5t-199.5 -57.5h-196z" />
<glyph unicode="e" d="M274 240v151l152 623h141l-149 -643h157l15 293h137v-293h102v-131h-102v-240h-152v240h-301z" />
<glyph unicode="f" d="M319 0v131h201q115 0 115 107v145q0 49 -32 79t-81 30h-186v522h430v-129h-281v-262h50q117 0 184 -60.5t67 -183.5v-135q0 -129 -61 -186.5t-199 -57.5h-207z" />
<glyph unicode="g" d="M281 262v479q0 131 70.5 202t201.5 71h199v-131h-203q-57 0 -88 -30t-31 -77v-131h131q262 0 262 -252v-131q0 -127 -68.5 -194.5t-172.5 -67.5h-60q-104 0 -172.5 67.5t-68.5 194.5zM430 248q0 -117 100 -117h43q100 0 101 117v160q0 49 -29 77.5t-84 28.5h-131v-266z " />
<glyph unicode="h" d="M317 881v133h469v-166l-241 -848h-152l250 881h-326z" />
<glyph unicode="i" d="M268 244v96q0 135 99 188q-80 57 -80 179v67q0 121 70.5 180.5t191.5 59.5h8q119 0 190.5 -59.5t71.5 -180.5v-67q0 -121 -80 -179q98 -53 99 -188v-96q0 -244 -281 -244h-8q-281 0 -281 244zM418 240q0 -111 100 -111h57q113 0 113 111v110q0 51 -27.5 80t-78.5 29h-56 q-51 0 -79.5 -29t-28.5 -80v-110zM434 688q0 -94 94 -100h39q104 0 105 100v86q0 59 -23 85t-80 26h-45q-49 0 -69.5 -27t-20.5 -84v-86z" />
<glyph unicode="j" d="M281 629v125q0 127 68.5 194.5t172.5 67.5h60q104 0 172.5 -67.5t68.5 -194.5v-480q0 -133 -69.5 -202.5t-200.5 -69.5h-201v131h205q57 0 88 30t31 77v137h-133q-262 0 -262 252zM430 614q0 -49 29 -77.5t84 -28.5h133v260q0 117 -103 117h-43q-100 0 -100 -117v-154z " />
<glyph unicode="k" d="M164 563v154h778v-154h-778z" />
<glyph unicode="l" d="M98 874v150h910v-150h-185v-659q0 -33 16.5 -47t55.5 -14h31v-154h-103q-70 0 -122 49t-52 156v669h-215v-874h-174v874h-162z" />
<glyph unicode="m" d="M193 348v225q0 172 83.5 250t260.5 78h200v223q0 63 -47 108.5t-123 45.5h-276v156h256q365 0 364 -349v-737q0 -168 -92 -258t-231 -90h-72q-139 0 -231 90t-92 258zM367 309q0 -66 43 -110.5t116 -44.5h52q74 0 116.5 45t42.5 110v439h-221q-150 0 -149 -136v-303z" />
<glyph unicode="n" d="M141 -328h248q33 0 52.5 17.5t19.5 44.5v1720q0 104 59.5 164.5t153.5 60.5h291v-153h-258q-33 0 -52.5 -17.5t-19.5 -44.5v-1720q0 -104 -59.5 -164.5t-153.5 -60.5h-281v153z" />
<glyph unicode="o" d="M117 596v209l348 -279v744h176v-742l346 277v-209l-434 -334z" />
<glyph unicode="p" d="M49 758l334 436h215l-279 -352h738v-168h-735l276 -350h-215z" />
<glyph unicode="q" d="M129 1053l123 123l522 -525l51 443l150 -150l-72 -543l-545 -71l-149 149l444 49z" />
<glyph unicode="r" d="M129 958l150 150l49 -444l524 524l123 -123l-524 -522l442 -51l-150 -150l-542 72z" />
<glyph unicode="s" d="M451 532v205h204v-205h-204z" />
<glyph unicode="t" d="M451 532v205h204v-205h-204z" />
<glyph unicode="u" d="M193 348v266q0 172 83.5 250t260.5 78h200v182q0 51 -31.5 93.5t-84.5 56.5l-68 -115h-168l72 123h-156v152h244l61 102h168l-74 -123q211 -66 211 -328v-737q0 -168 -92 -258t-231 -90h-72q-139 0 -231 90t-92 258zM367 309q0 -66 43 -110.5t116 -44.5h52q74 0 116.5 45 t42.5 110v479h-221q-150 0 -149 -135v-344z" />
<glyph unicode="v" d="M164 1280v154h475v-555l192 57v-162l-192 -55v-504q0 -33 16.5 -47t55.5 -14h231v-154h-303q-70 0 -122 49t-52 156v463l-189 -54v160l189 55v451h-301z" />
<glyph unicode="w" d="M188 -348v1782h174v-451q61 41 154 41h53q180 0 264.5 -77t84.5 -251v-368q0 -172 -85 -250t-264 -78h-207v-348h-174zM362 154h228q154 0 153 133v450q0 133 -153 133h-94q-68 0 -101 -35.5t-33 -76.5v-604z" />
<glyph unicode="x" d="M223 707v59q0 137 78 197.5t229 60.5h275v-154h-295q-51 0 -82 -23.5t-31 -68.5v-73q0 -47 28 -70t71 -23h69q281 0 281 -264v-92q0 -256 -307 -256h-306v154h326q113 0 113 92v108q0 92 -88 92h-76q-143 0 -214 62.5t-71 198.5zM240 1462h198l123 -153l123 153h197 l-230 -276h-180z" />
<glyph unicode="y" d="M129 1024h190l256 -838l220 838h180l-318 -1135q-39 -150 -101 -193.5t-175 -43.5h-98v153h86q49 0 73.5 18.5t36.5 63.5l29 113h-41zM399 1188l213 276h213l-250 -276h-176z" />
<glyph unicode="z" d="M209 0v164l479 708h-438v152h631v-182l-475 -690h454v-152h-651zM254 1462h199l122 -153l123 153h197l-229 -276h-181z" />
<glyph unicode="{" d="M209 682l686 358v-716z" />
<glyph unicode="|" d="M209 324v716l686 -358z" />
<glyph unicode="}" d="M53 682l508 270v-192h490v-154h-490v-192z" />
<glyph unicode="~" d="M53 604v154h490v192l508 -268l-508 -270v192h-490z" />
<glyph unicode="&#xa0;" />
<glyph unicode="&#xa2;" d="M451 532v205h204v-205h-204z" />
<glyph unicode="&#xa3;" d="M451 532v205h204v-205h-204z" />
<glyph unicode="&#xa5;" d="M451 532v205h204v-205h-204z" />
<glyph unicode="&#xa9;" d="M451 532v205h204v-205h-204z" />
<glyph unicode="&#xad;" d="M219 563v154h666v-154h-666z" />
<glyph unicode="&#xae;" d="M451 532v205h204v-205h-204z" />
<glyph unicode="&#xb4;" d="M451 532v205h204v-205h-204z" />
<glyph unicode="&#x2000;" horiz-adv-x="865" />
<glyph unicode="&#x2001;" horiz-adv-x="1731" />
<glyph unicode="&#x2002;" horiz-adv-x="865" />
<glyph unicode="&#x2003;" horiz-adv-x="1731" />
<glyph unicode="&#x2004;" horiz-adv-x="577" />
<glyph unicode="&#x2005;" horiz-adv-x="432" />
<glyph unicode="&#x2006;" horiz-adv-x="288" />
<glyph unicode="&#x2007;" horiz-adv-x="288" />
<glyph unicode="&#x2008;" horiz-adv-x="216" />
<glyph unicode="&#x2009;" horiz-adv-x="346" />
<glyph unicode="&#x200a;" horiz-adv-x="96" />
<glyph unicode="&#x2010;" d="M219 563v154h666v-154h-666z" />
<glyph unicode="&#x2011;" d="M219 563v154h666v-154h-666z" />
<glyph unicode="&#x2012;" d="M219 563v154h666v-154h-666z" />
<glyph unicode="&#x2013;" d="M451 532v205h204v-205h-204z" />
<glyph unicode="&#x2014;" d="M451 532v205h204v-205h-204z" />
<glyph unicode="&#x2018;" d="M451 532v205h204v-205h-204z" />
<glyph unicode="&#x2019;" d="M451 532v205h204v-205h-204z" />
<glyph unicode="&#x201c;" d="M451 532v205h204v-205h-204z" />
<glyph unicode="&#x201d;" d="M451 532v205h204v-205h-204z" />
<glyph unicode="&#x2022;" d="M451 532v205h204v-205h-204z" />
<glyph unicode="&#x2026;" d="M451 532v205h204v-205h-204z" />
<glyph unicode="&#x202f;" horiz-adv-x="346" />
<glyph unicode="&#x205f;" horiz-adv-x="432" />
<glyph unicode="&#x20ac;" d="M451 532v205h204v-205h-204z" />
<glyph unicode="&#x2122;" d="M451 532v205h204v-205h-204z" />
<glyph unicode="&#xe000;" horiz-adv-x="1460" d="M0 1460h1460v-1460h-1460v1460z" />
</font>
</defs>
</svg>
