<?xml version="1.0" standalone="no"?>
<!DOCTYPE svg PUBLIC "-//W3C//DTD SVG 1.1//EN" "http://www.w3.org/Graphics/SVG/1.1/DTD/svg11.dtd" >
<svg xmlns="http://www.w3.org/2000/svg">
<metadata>
This is a custom SVG webfont generated by Font Squirrel.
Copyright   : Copyright c This Font is designed by Ralph Oliver du Carrois 2005 All rights reserved
Designer    : Ralph du Carrois
Foundry     : This Font is designed by Ralph Oliver du Carrois
</metadata>
<defs>
<font id="Share-BoldItalicExpRegular" horiz-adv-x="512" >
<font-face units-per-em="2048" ascent="1655" descent="-393" />
<missing-glyph horiz-adv-x="573" />
<glyph unicode=" "  horiz-adv-x="573" />
<glyph unicode="&#x09;" horiz-adv-x="573" />
<glyph unicode="&#xa0;" horiz-adv-x="573" />
<glyph unicode="!" horiz-adv-x="1126" d="M156 276l20 236h819l-20 -236h-819zM193 686l20 236h819l-20 -236h-819zM221 1008l21 241q123 72 260 72q55 0 162.5 -40t161 -40t124 20.5t115.5 49.5l-21 -242q-49 -31 -125.5 -51.5t-134 -20.5t-159 42t-158.5 42q-53 0 -127 -22t-119 -51z" />
<glyph unicode="&#x22;" horiz-adv-x="1044" d="M156 295l20 246q119 68 221 67q61 0 166 -40t156 -40q90 0 201 70l-21 -246q-109 -68 -219 -67q-63 0 -163.5 42t-156.5 42q-87 0 -204 -74zM186 641l21 246q119 68 221 67q61 0 165.5 -40t156.5 -40q90 0 200 70l-20 -246q-109 -68 -219 -67q-63 0 -164 42t-156 42 q-88 0 -205 -74z" />
<glyph unicode="#" horiz-adv-x="1105" d="M10 0l455 1434h399l191 -1434h-1045zM365 231h385l-101 986z" />
<glyph unicode="$" horiz-adv-x="634" d="M143 -225l64 737h266l-63 -737h-267zM244 922l63 737h266l-63 -737h-266z" />
<glyph unicode="%" horiz-adv-x="1011" d="M92 717l328 717h381l200 -717l-325 -717h-385zM379 717l121 -506l215 506l-119 506z" />
<glyph unicode="&#x26;" horiz-adv-x="538" d="M66 -410l20 236h293l-21 -236h-292z" />
<glyph unicode="'" d="M125 500l22 266h308l-23 -266h-307z" />
<glyph unicode="(" horiz-adv-x="538" d="M207 1198l20 236h293l-20 -236h-293z" />
<glyph unicode=")" horiz-adv-x="577" d="M143 1284q0 287 263 287q104 0 160.5 -55.5t56.5 -157.5q0 -25 -2 -37q-10 -123 -72 -186.5t-189 -63.5q-104 0 -160.5 55.5t-56.5 157.5zM324 1286q0 -63 51 -63q33 0 47 23.5t18 76.5q2 14 2 37q0 63 -51 63q-39 0 -53 -32.5t-14 -104.5z" />
<glyph unicode="*" horiz-adv-x="1060" d="M137 1225l238 301h348l-369 -301h-217zM537 1225l237 301h348l-368 -301h-217z" />
<glyph unicode="+" horiz-adv-x="692" d="M96 -195q0 180 137 318h205q-49 -66 -80.5 -136.5t-31.5 -109.5q0 -82 71 -82q35 1 121 15l-14 -195q-78 -20 -174 -21q-127 0 -180.5 52.5t-53.5 158.5z" />
<glyph unicode="," horiz-adv-x="886" d="M147 1466h295l90 -151l115 151h305l-274 -276h-303z" />
<glyph unicode="-" horiz-adv-x="1013" d="M176 502l21 235h706l-20 -235h-707z" />
<glyph unicode="." horiz-adv-x="538" d="M113 0l88 1024h272l-88 -1024h-272z" />
<glyph unicode="/" horiz-adv-x="471" d="M-242 -205l795 1864h244l-797 -1864h-242z" />
<glyph unicode="0" horiz-adv-x="1290" d="M154 0v983h491v-491h492v-492h-983zM891 737v246h246v-246h-246z" />
<glyph unicode="1" d="M125 500l22 266h308l-23 -266h-307z" />
<glyph unicode="2" d="M125 500l22 266h308l-23 -266h-307z" />
<glyph unicode="3" d="M125 500l22 266h308l-23 -266h-307z" />
<glyph unicode="4" d="M125 500l22 266h308l-23 -266h-307z" />
<glyph unicode="5" d="M125 500l22 266h308l-23 -266h-307z" />
<glyph unicode="6" d="M125 500l22 266h308l-23 -266h-307z" />
<glyph unicode="7" d="M125 500l22 266h308l-23 -266h-307z" />
<glyph unicode="8" d="M125 500l22 266h308l-23 -266h-307z" />
<glyph unicode="9" d="M125 500l22 266h308l-23 -266h-307z" />
<glyph unicode=":" d="M125 500l22 266h308l-23 -266h-307z" />
<glyph unicode=";" d="M125 500l22 266h308l-23 -266h-307z" />
<glyph unicode="&#x3c;" horiz-adv-x="1126" d="M133 0l21 236h819l-21 -236h-819zM180 541l29 333l848 320l-25 -272l-610 -211l577 -164l-24 -268z" />
<glyph unicode="=" horiz-adv-x="1126" d="M141 102l123 195h-106l20 235h234l110 175h-327l20 235h457l123 195h256l-123 -195h106l-20 -235h-236l-110 -175h329l-20 -235h-457l-123 -195h-256z" />
<glyph unicode="&#x3e;" horiz-adv-x="1126" d="M133 0l21 236h819l-21 -236h-819zM156 279l24 276l606 164l-573 211l25 264l790 -320l-29 -333z" />
<glyph unicode="?" horiz-adv-x="1167" d="M68 231l147 148q-41 96 -41 235q0 133 43 234l-149 149l174 174l135 -135q104 63 248 64q139 0 247 -64l136 135l174 -174l-140 -139q53 -106 54 -244q0 -135 -54 -245l140 -138l-174 -174l-134 131q-102 -59 -249 -59q-150 0 -252 59l-131 -131zM424 614.5 q0 -120.5 51 -193.5t149.5 -73t149.5 74t51 192.5t-51 192.5t-149.5 74t-149.5 -73t-51 -193.5z" />
<glyph unicode="@" horiz-adv-x="1658" d="M184 717q0 358 163 546.5t534 188.5q369 0 522 -187.5t153 -547.5q0 -362 -152.5 -548.5t-522.5 -186.5q-375 0 -536 185t-161 550zM424 716.5q0 -147.5 17.5 -238.5t65.5 -162.5t139 -102.5t234.5 -31t231.5 31t133 104.5t58.5 161.5t13.5 237.5t-13.5 237.5t-58.5 162 t-133 104.5t-231 30.5q-145 0 -235.5 -30.5t-139.5 -101t-65.5 -163t-16.5 -240zM676 326v788q131 8 225 8q135 0 190.5 -65.5t55.5 -186.5q0 -260 -242 -260h-59v-284h-170zM846 758h28q57 0 78 21.5t21 87t-15.5 89t-68.5 23.5l-43 -4v-217z" />
<glyph unicode="A" horiz-adv-x="839" d="M147 780q0 94 9 160q25 283 99.5 393.5t268.5 110.5q154 0 220.5 -85t66.5 -278q0 -64 -6 -141q-27 -297 -100.5 -413.5t-270.5 -116.5q-154 0 -220.5 86t-66.5 284zM375 733q0 -76 16.5 -101.5t59.5 -25.5q59 0 79.5 57.5t38.5 268.5q12 131 13 198q0 70 -16.5 93.5 t-57.5 23.5q-59 0 -80.5 -56t-40.5 -259q-12 -133 -12 -199z" />
<glyph unicode="B" horiz-adv-x="839" d="M172 420l18 205h170l54 596l-195 -80l19 215l178 78h252l-72 -809h137l-18 -205h-543z" />
<glyph unicode="C" horiz-adv-x="839" d="M131 420l21 213l229 254q78 78 105.5 134t27.5 136q0 92 -115 92q-61 0 -170 -22l17 198q4 0 29.5 4.5t52 8.5t63.5 7t66 3q135 0 214 -77t79 -208q0 -197 -117 -323l-203 -219h285l-19 -201h-565z" />
<glyph unicode="D" horiz-adv-x="839" d="M158 426l16 192q98 -22 164 -22h6q141 0 141 154q0 118 -118 118h-2h-89l17 187h74q84 0 111.5 32.5t27.5 94.5q0 75 -100 75h-3q-55 0 -167 -24l16 192q102 23 209 23q147 0 213.5 -56.5t66.5 -179.5q0 -80 -35.5 -152.5t-111.5 -92.5q53 -14 91 -72t38 -115 q0 -195 -86 -284.5t-258 -89.5q-125 0 -221 20z" />
<glyph unicode="E" horiz-adv-x="839" d="M152 659l18 213l195 562h225l-201 -582h78l51 231h199l-21 -231h92l-16 -193h-92l-23 -239h-233l22 239h-294z" />
<glyph unicode="F" horiz-adv-x="839" d="M172 426l16 199q88 -20 191 -21q115 0 115 178q0 53 -21.5 74t-83.5 21h-164l49 557h469l-18 -199h-244l-14 -168h18q137 0 191.5 -60.5t54.5 -181.5q0 -236 -85 -327.5t-243 -91.5q-125 0 -231 20z" />
<glyph unicode="G" horiz-adv-x="839" d="M156 784q0 207 28.5 343.5t87 204t127 92t168.5 24.5q109 0 189 -18l-19 -193q-86 23 -155 23q-80 0 -115 -35t-53 -146q55 25 114 25q252 0 252 -289q0 -23 -4 -72q-29 -337 -344 -337h-2q-94 0 -149.5 26.5t-90 111.5t-34.5 240zM383 715q0 -74 15.5 -95.5t54.5 -21.5 q57 0 75.5 55.5t18.5 149.5q0 68 -20.5 90t-73.5 22q-31 0 -60 -12q-10 -104 -10 -188z" />
<glyph unicode="H" horiz-adv-x="839" d="M215 420l330 819h-305l18 195h535l-21 -228l-317 -786h-240z" />
<glyph unicode="I" horiz-adv-x="839" d="M117 680q0 92 40 160.5t113 93.5q-94 43 -94 180q0 166 81 250t267 84q299 0 299 -254q0 -27 -5 -56.5t-19.5 -66.5t-44 -65.5t-70.5 -40.5q121 -35 121 -201t-91 -262t-280 -96q-317 0 -317 274zM354 684q0 -90 97 -90q120 0 120 156q0 55 -29.5 83.5t-113.5 28.5 q-43 -33 -58.5 -70.5t-15.5 -107.5zM408 1135q0 -100 106 -101q76 35 76 131q0 51 -19.5 73t-62.5 22q-51 0 -75.5 -28t-24.5 -97z" />
<glyph unicode="J" horiz-adv-x="962" d="M242 1040q0 23 4 84q14 164 106 245t240 81q141 0 206.5 -78t65.5 -287q0 -84 -8 -165q-14 -166 -46 -270.5t-86 -156t-114.5 -68.5t-154.5 -17q-106 0 -172 16l16 192q78 -20 141 -20q80 0 114 35t50 145q-57 -22 -110 -22h-5q-129 0 -188 69.5t-59 216.5zM471 1049 q0 -63 20.5 -86t73.5 -23q27 0 58 10q10 137 10 189q0 76 -14.5 97t-49.5 21q-98 0 -98 -208z" />
<glyph unicode="K" horiz-adv-x="1167" d="M211 375l240 239l-240 240l174 174l240 -240l239 240l174 -174l-239 -240l239 -239l-174 -174l-239 239l-240 -239z" />
<glyph unicode="L" horiz-adv-x="1216" d="M156 1198l20 236h1073l-20 -236h-187l-73 -856q-4 -49 -4 -57q0 -59 61 -60q25 0 55 6l-18 -225q-68 -14 -170 -14q-207 0 -207 235q0 43 4 84l78 887h-174l-105 -1198h-276l104 1198h-161z" />
<glyph unicode="M" horiz-adv-x="962" d="M31 -348l22 274l400 621l-265 610l25 277h739l-20 -236h-457l275 -651l-420 -662h510l-21 -233h-788z" />
<glyph unicode="N" horiz-adv-x="1495" d="M104 633q0 399 418 399q76 0 152 -33.5t119 -99.5q115 133 317 133q174 0 263 -83t89 -228q0 -401 -415 -402q-76 0 -152 34t-121 98q-117 -131 -315 -132q-174 0 -264.5 84t-90.5 230zM350 659q0 -63 35 -96t88 -33q176 0 189 166q-21 125 -162 125q-59 0 -104.5 -43 t-45.5 -119zM905 655q23 -125 164 -125q61 0 105.5 44t44.5 124q0 59 -35 91t-88 32q-176 0 -191 -166z" />
<glyph unicode="O" horiz-adv-x="1198" d="M150 655l24 301l516 334l457 -334l-25 -297l-325 267l-60 -684h-278l61 673z" />
<glyph unicode="P" horiz-adv-x="1198" d="M111 639l22 258h666l-232 356h312l290 -485l-376 -487h-324l295 358h-653z" />
<glyph unicode="Q" horiz-adv-x="1198" d="M162 557l157 580l592 108l197 -217l-440 -65l430 -474l-205 -188l-422 469l-109 -434z" />
<glyph unicode="R" horiz-adv-x="1198" d="M154 492l518 473l-432 63l237 217l570 -106l57 -582l-240 -219l-33 436l-505 -471z" />
<glyph unicode="S" horiz-adv-x="1597" d="M164 0l125 1434h1229l-125 -1434h-1229zM465 244h668l81 946h-667z" />
<glyph unicode="T" horiz-adv-x="1597" d="M133 -348l182 2089h1229l-182 -2089h-1229zM434 -104h668l139 1601h-668z" />
<glyph unicode="U" horiz-adv-x="1118" d="M98 666l21 235h82l47 533q250 20 364 20q111 0 188 -21.5t141.5 -77t95 -162t30.5 -267.5q0 -97 -8 -187q-20 -227 -60.5 -375.5t-110 -233.5t-158.5 -117.5t-222 -32.5q-66 0 -162 5t-160 10l-63 5l57 666h-82zM424 236q37 -8 123 -9q98 0 149 106.5t76 391.5 q12 145 12 233q0 156 -33.5 202t-115.5 46l-127 -8l-27 -297h201l-20 -235h-201z" />
<glyph unicode="V" horiz-adv-x="880" d="M72 594l20 242l129 63l47 535h281l-35 -392l188 95l-20 -246l-188 -92l-50 -561h416l-20 -238h-697l58 655z" />
<glyph unicode="W" horiz-adv-x="1085" d="M123 0l125 1434h280l-20 -222q16 0 48 1t48 1q231 0 333.5 -98t102.5 -295q0 -27 -4 -84q-23 -266 -138.5 -374.5t-356.5 -108.5h-117l-21 -254h-280zM446 496h129q72 0 118.5 61.5t56.5 165.5q4 53 4 72q0 88 -31 131t-102 43q-39 0 -73 -3t-48 -7l-15 -3z" />
<glyph unicode="X" horiz-adv-x="868" d="M43 16l23 244q123 -33 266 -33q227 0 227 234q0 80 -37 113.5t-121 54.5q-282 68 -282 336q0 17 0.5 30t1.5 21q20 233 140 332.5t382 99.5q152 0 252 -29l-21 -243q-106 30 -262 30h-10q-196 0 -196 -207q0 -61 30.5 -86.5t116.5 -44.5q143 -33 219 -114.5t76 -237.5 q0 -21 -4 -70q-14 -143 -53 -236t-109 -141.5t-150.5 -65.5t-199.5 -17q-176 0 -289 30zM205 1731h301l72 -125l92 125h299l-246 -236h-311z" />
<glyph unicode="Y" horiz-adv-x="1087" d="M125 1434h297l178 -553l277 553h294l-454 -803l-53 -631h-287l53 631zM510 1487l233 235h330l-332 -235h-231z" />
<glyph unicode="Z" horiz-adv-x="954" d="M51 0l23 272l581 918h-454l22 244h764l-24 -273l-580 -917h479l-20 -244h-791zM252 1731h301l72 -125l92 125h299l-246 -236h-311z" />
<glyph unicode="[" horiz-adv-x="1249" d="M-92 -352l20 231q70 -8 127 -8q55 0 78 19.5t27 72.5l71 830h-133l21 231h133l4 41q20 205 103 275.5t278 70.5q121 0 278 -22q72 63 236 63q104 0 221 -25l-18 -231q-94 23 -172 23q-90 0 -97 -95l-8 -100h221l-20 -231h-221l-72 -820q-16 -197 -95 -266t-259 -69 q-80 0 -172 10l20 231q70 -8 127 -8q55 0 78 19.5t27 72.5l71 830h-276l-72 -820q-16 -197 -95 -266t-259 -69q-80 0 -172 10zM526 1024h277l8 82q4 49 8 72q-90 8 -151 8q-84 0 -108.5 -20.5t-29.5 -73.5z" />
<glyph unicode="\" horiz-adv-x="1695" d="M-92 -352l20 231q70 -8 127 -8q55 0 78 19.5t27 72.5l71 830h-133l21 231h133l4 41q20 205 103 275.5t278 70.5q125 0 283 -22q80 63 274 63q188 0 365 -37l-21 -231q-145 35 -313 35q-86 0 -108.5 -20.5t-29.5 -74.5l-8 -100h520l-88 -1024h-272l68 793h-248l-72 -820 q-16 -197 -95 -266t-259 -69q-39 0 -131 10l20 231q70 -8 86 -8q55 0 78 19.5t27 72.5l71 830h-278l-72 -820q-16 -197 -95 -266t-259 -69q-80 0 -172 10zM526 1024h279l8 90q4 41 8 64q-94 8 -153 8q-84 0 -108.5 -20.5t-29.5 -73.5z" />
<glyph unicode="]" horiz-adv-x="1695" d="M-92 -352l20 231q70 -8 127 -8q55 0 78 19.5t27 72.5l71 830h-133l21 231h133l4 41q20 205 103 275.5t278 70.5q125 0 283 -22q80 63 274 63q188 0 365 -37l-21 -231q-145 35 -313 35q-86 0 -108.5 -20.5t-29.5 -74.5l-8 -100h520l-92 -1051q-18 -199 -96 -267t-256 -68 q-33 0 -125 10l21 229q51 -6 79 -6q55 0 78 19.5t27 72.5l72 830h-248l-72 -820q-16 -197 -95 -266t-259 -69q-39 0 -131 10l20 231q70 -8 86 -8q55 0 78 19.5t27 72.5l71 830h-278l-72 -820q-16 -197 -95 -266t-259 -69q-80 0 -172 10zM526 1024h279l8 90q4 41 8 64 q-94 8 -153 8q-84 0 -108.5 -20.5t-29.5 -73.5z" />
<glyph unicode="^" horiz-adv-x="1720" d="M-92 -352l20 231q70 -8 127 -8q55 0 78 19.5t27 72.5l71 830h-133l21 231h133l4 41q20 205 103 275.5t278 70.5q125 0 283 -22q80 63 274 63q100 0 170 -18h272l-94 -1074q-6 -61 -6 -75q0 -33 12.5 -46.5t45 -13.5t73.5 8l-18 -227q-76 -16 -188.5 -16t-156.5 51 t-44 166q0 27 4 96l43 490h-248l-72 -820q-16 -197 -95 -266t-259 -69q-39 0 -131 10l20 231q70 -8 86 -8q55 0 78 19.5t27 72.5l71 830h-278l-72 -820q-16 -197 -95 -266t-259 -69q-80 0 -172 10zM526 1024h279l8 90q4 41 8 64q-94 8 -153 8q-84 0 -108.5 -20.5 t-29.5 -73.5zM1079 1024h248l16 188q-55 6 -118 7q-86 0 -109 -21t-29 -74z" />
<glyph unicode="_" horiz-adv-x="1112" d="M-92 -352l20 231q70 -8 127 -8q55 0 78 19.5t27 72.5l71 830h-133l21 231h133l8 82q20 205 103 275.5t278 70.5q190 0 365 -37l-21 -231q-145 35 -313 35q-86 0 -108.5 -20.5t-28.5 -74.5l-9 -100h521l-93 -1051q-18 -199 -96 -267t-256 -68q-33 0 -125 10l21 229 q51 -6 80 -6q55 0 77.5 19.5t26.5 72.5l72 830h-248l-72 -820q-16 -197 -95 -266t-259 -69q-80 0 -172 10z" />
<glyph unicode="`" horiz-adv-x="624" d="M119 440l35 400h419l-34 -400h-420z" />
<glyph unicode="a" horiz-adv-x="839" d="M172 0l18 205h170l54 596l-195 -80l19 215l178 78h252l-72 -809h137l-18 -205h-543z" />
<glyph unicode="b" horiz-adv-x="839" d="M131 0l21 213l229 254q78 78 105.5 134t27.5 136q0 92 -115 92q-61 0 -170 -22l17 199q4 0 29.5 4t52 8t63.5 7t66 3q135 0 214 -77t79 -208q0 -197 -117 -323l-203 -219h285l-19 -201h-565z" />
<glyph unicode="c" horiz-adv-x="839" d="M158 6l16 193q100 -23 170 -23q141 0 141 154q0 119 -120 119h-89l17 186h74q84 0 111.5 32.5t27.5 94.5q0 76 -103 76q-55 0 -167 -25l16 193q96 22 200 22h9q147 0 213.5 -56.5t66.5 -178.5q0 -80 -35.5 -153t-111.5 -93q53 -14 91 -72t38 -115q0 -195 -86 -284.5 t-258 -89.5q-125 0 -221 20z" />
<glyph unicode="d" horiz-adv-x="839" d="M152 240l18 213l195 561h225l-201 -582h78l51 232h199l-21 -232h92l-16 -192h-92l-23 -240h-233l22 240h-294z" />
<glyph unicode="e" horiz-adv-x="839" d="M172 6l16 199q88 -20 191 -21q115 0 115 178q0 53 -21.5 74t-83.5 21h-164l49 557h469l-18 -199h-244l-14 -168h18q137 0 191.5 -60.5t54.5 -180.5q0 -236 -85 -328t-243 -92q-125 0 -231 20z" />
<glyph unicode="f" horiz-adv-x="839" d="M156 365q0 207 28.5 343t87 203.5t127 92t168.5 24.5q109 0 189 -18l-19 -193q-86 23 -155 23q-80 0 -115 -35t-53 -146q55 25 114 25q252 0 252 -289q0 -22 -4 -71q-29 -338 -346 -338q-94 0 -149.5 26.5t-90 111.5t-34.5 241zM383 295q0 -74 15.5 -95.5t54.5 -21.5 q57 0 75.5 55.5t18.5 149.5q0 68 -20.5 90.5t-73.5 22.5q-31 0 -60 -13q-10 -104 -10 -188z" />
<glyph unicode="g" horiz-adv-x="839" d="M215 0l330 819h-305l18 195h535l-21 -228l-317 -786h-240z" />
<glyph unicode="h" horiz-adv-x="839" d="M117 260q0 92 40 160.5t113 93.5q-94 43 -94 180q0 166 81 250t267 84q299 0 299 -254q0 -27 -5 -56.5t-19.5 -66.5t-44 -65.5t-70.5 -40.5q121 -35 121 -201t-91 -262t-280 -96q-317 0 -317 274zM354 264q0 -90 97 -90q120 0 120 156q0 55 -29.5 83.5t-113.5 28.5 q-43 -33 -58.5 -70.5t-15.5 -107.5zM408 715q0 -100 106 -101q76 35 76 131q0 51 -19.5 73t-62.5 22q-51 0 -75.5 -28t-24.5 -97z" />
<glyph unicode="i" horiz-adv-x="962" d="M242 621q0 23 4 84q14 164 106 244.5t240 80.5q141 0 206.5 -78t65.5 -286q0 -84 -8 -166q-14 -166 -46 -270.5t-86 -155.5t-114.5 -68.5t-154.5 -17.5q-106 0 -172 16l16 193q78 -20 141 -21q80 0 114 35t50 145q-57 -22 -110 -22h-5q-129 0 -188 69.5t-59 217.5z M471 629q0 -63 20.5 -86t73.5 -23q27 0 58 10q10 137 10 189q0 76 -14.5 97.5t-49.5 21.5q-98 0 -98 -209z" />
<glyph unicode="j" horiz-adv-x="962" d="M242 621q0 23 4 84q14 164 106 244.5t240 80.5q141 0 206.5 -78t65.5 -286q0 -84 -8 -166q-14 -166 -46 -270.5t-86 -155.5t-114.5 -68.5t-154.5 -17.5q-106 0 -172 16l16 193q78 -20 141 -21q78 0 112 35t50 145q-47 -22 -108 -22h-5q-129 0 -188 69.5t-59 217.5z M471 629q0 -63 20.5 -86t73.5 -23q27 0 58 10q10 133 10 183q0 78 -14.5 101.5t-49.5 23.5q-98 0 -98 -209z" />
<glyph unicode="k" horiz-adv-x="1126" d="M166 502l20 235h840l-20 -235h-840z" />
<glyph unicode="l" horiz-adv-x="1196" d="M119 791l20 233h1053l-21 -233h-188l-39 -449q-4 -49 -4 -57q0 -59 61 -60q25 0 56 6l-19 -225q-68 -14 -161 -14q-207 0 -207 235q0 43 4 84l41 480h-162l-68 -791h-272l68 791h-162z" />
<glyph unicode="m" horiz-adv-x="962" d="M86 362q0 45 2 68q23 262 107 386t286 124q94 0 181 -53q2 27 2 76q0 154 -42 209t-151 55q-100 0 -225 -29l18 229q98 25 219 25q227 0 339 -115.5t112 -414.5q0 -92 -8 -183q-27 -301 -80 -461.5t-151.5 -228t-270.5 -67.5q-55 0 -108.5 17t-107.5 56t-88 119t-34 188z M358 358q0 -88 26 -119.5t85 -31.5q51 0 80 30.5t54.5 136t43.5 310.5q-69 35 -137 35q-152 0 -152 -361z" />
<glyph unicode="n" horiz-adv-x="675" d="M-113 -485l21 229q49 -6 125 -6q55 0 77.5 19.5t26.5 72.5l133 1522q18 201 97 273.5t243 72.5q98 0 221 -25l-20 -231q-86 22 -163 22h-7q-86 0 -96 -94l-133 -1530q-16 -190 -97.5 -263t-257.5 -73q-78 0 -170 11z" />
<glyph unicode="o" horiz-adv-x="1198" d="M143 575l27 297l326 -262l59 680h279l-64 -672l373 259l-27 -302l-514 -333z" />
<glyph unicode="p" horiz-adv-x="1198" d="M121 768l377 487h321l-291 -358h654l-23 -258h-661l231 -356h-315z" />
<glyph unicode="q" horiz-adv-x="1198" d="M199 518l438 70l-430 471l205 188l426 -477l102 440l203 -219l-158 -579l-592 -109z" />
<glyph unicode="r" horiz-adv-x="1198" d="M201 991l241 219l31 -434l506 469l172 -188l-518 -473l428 -64l-234 -217l-569 107z" />
<glyph unicode="s" horiz-adv-x="1597" d="M164 0l125 1434h1229l-125 -1434h-1229z" />
<glyph unicode="t" horiz-adv-x="1597" d="M133 -348l182 2089h1229l-182 -2089h-1229z" />
<glyph unicode="u" horiz-adv-x="1040" d="M117 365q0 42 2 65q23 264 111.5 397.5t289.5 133.5q98 0 180 -43q-8 154 -69 225l-53 -86h-220l103 162q-53 4 -176 4l20 229q193 0 293 -16l64 100h219l-103 -160q201 -113 201 -477q0 -84 -8 -160q-27 -299 -83.5 -460.5t-155.5 -229t-271 -67.5q-55 0 -109.5 17 t-110 56t-90 119t-34.5 191zM389 367q0 -92 27.5 -126t89.5 -34q51 0 81.5 31.5t59.5 144.5t47 326q-73 30 -145 30q-74 0 -117 -100t-43 -272z" />
<glyph unicode="v" horiz-adv-x="614" d="M82 594l20 242l107 61l49 537h272l-32 -373l133 76l-21 -246l-135 -76l-43 -502q0 -6 -1 -15t-1 -13q0 -33 12.5 -46.5t45 -13.5t73.5 8l-18 -227q-76 -16 -188.5 -16t-156.5 51t-44 166q0 27 4 96l30 350z" />
<glyph unicode="w" horiz-adv-x="1062" d="M82 -348l156 1782h272l-156 -1782h-272zM156 20l151 209q82 -14 193 -14q92 0 145 71.5t70 270.5q4 35 4 90q0 92 -23.5 127t-77.5 35q-82 0 -130 -83t-58 -177l-166 37q39 104 75 177t89 141.5t124 103t159 34.5q282 0 282 -359v-31t-0.5 -28t-1.5 -24t-2 -20 q-31 -340 -147.5 -469t-380.5 -129q-147 0 -305 38z" />
<glyph unicode="x" horiz-adv-x="823" d="M59 14l21 232q152 -35 242 -35q86 0 131 23.5t45 84.5q0 39 -26 57.5t-95 33.5q-262 53 -262 272q0 193 109.5 276.5t336.5 83.5q121 0 244 -30l-21 -234q-117 35 -241 35q-80 0 -114 -22.5t-34 -73.5q0 -31 28 -45.5t97 -30.5q260 -56 260 -283q0 -211 -114.5 -293.5 t-327.5 -82.5q-152 0 -279 32zM150 1466h294l91 -151l114 151h305l-274 -276h-303z" />
<glyph unicode="y" horiz-adv-x="1009" d="M109 1024h286l129 -797l244 797h268l-358 -1110q-90 -276 -316 -276q-123 0 -184 10l21 231q49 -6 100 -6q82 0 109 90l10 37h-70zM436 1188l228 276h335l-335 -276h-228z" />
<glyph unicode="z" horiz-adv-x="856" d="M59 0l19 227l475 578h-383l18 219h693l-21 -246l-471 -559h402l-19 -219h-713zM168 1466h295l90 -151l115 151h305l-275 -276h-309z" />
<glyph unicode="{" horiz-adv-x="931" d="M141 682l764 440l-76 -880z" />
<glyph unicode="|" horiz-adv-x="931" d="M104 242l76 880l690 -440z" />
<glyph unicode="}" horiz-adv-x="1406" d="M184 682l561 373l-22 -254h592l-21 -236h-592l-22 -254z" />
<glyph unicode="~" horiz-adv-x="1406" d="M172 563l21 236h591l21 254l498 -371l-562 -373l23 254h-592z" />
<glyph unicode="&#xa2;" d="M125 500l22 266h308l-23 -266h-307z" />
<glyph unicode="&#xa3;" d="M125 500l22 266h308l-23 -266h-307z" />
<glyph unicode="&#xa5;" d="M125 500l22 266h308l-23 -266h-307z" />
<glyph unicode="&#xa9;" d="M125 500l22 266h308l-23 -266h-307z" />
<glyph unicode="&#xad;" horiz-adv-x="1013" d="M176 502l21 235h706l-20 -235h-707z" />
<glyph unicode="&#xae;" d="M125 500l22 266h308l-23 -266h-307z" />
<glyph unicode="&#xb4;" d="M125 500l22 266h308l-23 -266h-307z" />
<glyph unicode="&#x2000;" horiz-adv-x="870" />
<glyph unicode="&#x2001;" horiz-adv-x="1741" />
<glyph unicode="&#x2002;" horiz-adv-x="870" />
<glyph unicode="&#x2003;" horiz-adv-x="1741" />
<glyph unicode="&#x2004;" horiz-adv-x="580" />
<glyph unicode="&#x2005;" horiz-adv-x="435" />
<glyph unicode="&#x2006;" horiz-adv-x="290" />
<glyph unicode="&#x2007;" horiz-adv-x="290" />
<glyph unicode="&#x2008;" horiz-adv-x="217" />
<glyph unicode="&#x2009;" horiz-adv-x="348" />
<glyph unicode="&#x200a;" horiz-adv-x="96" />
<glyph unicode="&#x2010;" horiz-adv-x="1013" d="M176 502l21 235h706l-20 -235h-707z" />
<glyph unicode="&#x2011;" horiz-adv-x="1013" d="M176 502l21 235h706l-20 -235h-707z" />
<glyph unicode="&#x2012;" horiz-adv-x="1013" d="M176 502l21 235h706l-20 -235h-707z" />
<glyph unicode="&#x2013;" d="M125 500l22 266h308l-23 -266h-307z" />
<glyph unicode="&#x2014;" d="M125 500l22 266h308l-23 -266h-307z" />
<glyph unicode="&#x2018;" d="M125 500l22 266h308l-23 -266h-307z" />
<glyph unicode="&#x2019;" d="M125 500l22 266h308l-23 -266h-307z" />
<glyph unicode="&#x201c;" d="M125 500l22 266h308l-23 -266h-307z" />
<glyph unicode="&#x201d;" d="M125 500l22 266h308l-23 -266h-307z" />
<glyph unicode="&#x2022;" d="M125 500l22 266h308l-23 -266h-307z" />
<glyph unicode="&#x2026;" d="M125 500l22 266h308l-23 -266h-307z" />
<glyph unicode="&#x202f;" horiz-adv-x="348" />
<glyph unicode="&#x205f;" horiz-adv-x="435" />
<glyph unicode="&#x20ac;" d="M125 500l22 266h308l-23 -266h-307z" />
<glyph unicode="&#x2122;" d="M125 500l22 266h308l-23 -266h-307z" />
<glyph unicode="&#xe000;" horiz-adv-x="1465" d="M0 1465h1465v-1465h-1465v1465z" />
</font>
</defs>
</svg>
