<?xml version="1.0" standalone="no"?>
<!DOCTYPE svg PUBLIC "-//W3C//DTD SVG 1.1//EN" "http://www.w3.org/Graphics/SVG/1.1/DTD/svg11.dtd" >
<svg xmlns="http://www.w3.org/2000/svg">
<metadata>
This is a custom SVG webfont generated by Font Squirrel.
Copyright   : Copyright c This Font is designed by Ralph Oliver du Carrois 2005 All rights reserved
Designer    : Ralph du Carrois
Foundry     : This Font is designed by Ralph Oliver du Carrois
</metadata>
<defs>
<font id="Share-RegularOSFRegular" horiz-adv-x="665" >
<font-face units-per-em="2048" ascent="1655" descent="-393" />
<missing-glyph horiz-adv-x="532" />
<glyph unicode=" "  horiz-adv-x="532" />
<glyph unicode="&#x09;" horiz-adv-x="532" />
<glyph unicode="&#xa0;" horiz-adv-x="532" />
<glyph unicode="!" horiz-adv-x="512" d="M154 0v205h204v-205h-204zM168 426v1008h174v-1008h-174z" />
<glyph unicode="&#x22;" horiz-adv-x="737" d="M113 1249v185h194v-185l-41 -321h-112zM430 1249v185h195v-185l-41 -321h-113z" />
<glyph unicode="#" horiz-adv-x="962" d="M61 369l13 153h143l37 410h-143l12 153h143l31 349h164l-31 -349h164l31 349h163l-30 -349h143l-12 -153h-144l-36 -410h143l-12 -153h-144l-32 -369h-164l32 369h-163l-33 -369h-164l33 369h-144zM381 522h164l37 410h-164z" />
<glyph unicode="$" horiz-adv-x="962" d="M168 1012q0 291 225 352v233h174v-215q70 -2 181 -30v-150q-131 31 -218 31q-180 0 -180 -199q0 -104 32 -158.5t112 -70.5q154 -33 227.5 -125t73.5 -283q0 -180 -56.5 -271t-171.5 -120v-231h-174v215q-106 4 -200 30v150q119 -31 237 -31q102 0 142 57.5t40 180.5 q0 129 -35.5 186.5t-109.5 71.5q-299 61 -299 377z" />
<glyph unicode="%" horiz-adv-x="1753" d="M174 1024q0 215 57.5 319.5t223.5 104.5q88 0 144 -28.5t86 -89t40 -131.5t10 -175t-11 -178t-40 -136.5t-86 -94t-143 -31.5t-143.5 31.5t-86 94t-40 136.5t-11.5 178zM315 1016q0 -168 31 -239.5t108.5 -71.5t108.5 71.5t31 239.5t-31 239.5t-108.5 71.5t-108.5 -71.5 t-31 -239.5zM547 0l502 1434h159l-501 -1434h-160zM1018 426q0 215 57.5 319.5t222.5 104.5q88 0 144.5 -28.5t86.5 -89t40 -131.5t10 -175t-11.5 -178t-40 -136.5t-86 -94t-143.5 -31.5t-143 31.5t-86 94t-40 136.5t-11 178zM1159 418q0 -168 31 -240t108.5 -72t108.5 72 t31 240t-31 239.5t-108.5 71.5t-108.5 -71.5t-31 -239.5z" />
<glyph unicode="&#x26;" horiz-adv-x="1038" d="M133 406q0 371 164 430q-74 43 -105.5 103t-31.5 157q0 211 95 281.5t277 70.5q113 0 205 -31v-149q-123 31 -209 30q-92 0 -143 -36.5t-51 -147.5q0 -213 172 -213h481v-149h-170v-742q-158 -25 -334 -24.5t-263 99t-87 321.5zM309 385q0 -117 48 -183.5t128 -66.5 q94 0 170 17v600h-180q-51 0 -86 -30t-51 -86t-22.5 -113.5t-6.5 -137.5z" />
<glyph unicode="'" horiz-adv-x="419" d="M113 1249v185h194v-185l-41 -321h-112z" />
<glyph unicode="(" horiz-adv-x="655" d="M113 717q0 299 57 529.5t192 432.5h170q-129 -219 -187 -445t-58 -517t58 -517.5t187 -445.5h-170q-135 203 -192 433.5t-57 529.5z" />
<glyph unicode=")" horiz-adv-x="655" d="M123 -246q129 219 187.5 445.5t58.5 517.5t-58.5 517t-187.5 445h170q135 -203 192.5 -433t57.5 -529t-57.5 -529.5t-192.5 -433.5h-170z" />
<glyph unicode="*" horiz-adv-x="983" d="M82 1120l55 164l289 -117l-27 312h185l-27 -312l293 113l51 -162l-301 -63l217 -252l-147 -107l-181 291l-186 -291l-143 109l219 250z" />
<glyph unicode="+" horiz-adv-x="1126" d="M172 563v154h309v323h164v-323h307v-154h-307v-321h-164v321h-309z" />
<glyph unicode="," horiz-adv-x="471" d="M51 -287l82 287v205h205v-205l-148 -287h-139z" />
<glyph unicode="-" horiz-adv-x="1013" d="M174 563v154h666v-154h-666z" />
<glyph unicode="." horiz-adv-x="471" d="M133 0v205h205v-205h-205z" />
<glyph unicode="/" d="M10 -225l484 1884h161l-483 -1884h-162z" />
<glyph unicode="0" horiz-adv-x="974" d="M123 541q0 100 7 172.5t29.5 144.5t61.5 115t106.5 69.5t159.5 26.5q94 0 161 -26.5t106 -69.5t61.5 -115t29.5 -143.5t7 -173.5q0 -109 -7 -185.5t-29.5 -150.5t-62.5 -119t-106.5 -72.5t-159 -27.5t-159 27.5t-106.5 72.5t-62.5 119t-29.5 150.5t-7 185.5zM297 530 q0 -221 37 -309t153.5 -88t153.5 88t37 309q0 215 -38 303.5t-152.5 88.5t-152.5 -88.5t-38 -303.5z" />
<glyph unicode="1" horiz-adv-x="839" d="M113 788v164l247 103h195v-901h203v-154h-625v154h248v741z" />
<glyph unicode="2" horiz-adv-x="839" d="M92 0v180l307 266q94 82 122 138.5t28 173.5q0 72 -45 117t-133 45q-111 0 -252 -37v151q152 35 252 35q352 0 352 -330q0 -236 -150 -364l-256 -219h420v-156h-645z" />
<glyph unicode="3" horiz-adv-x="808" d="M82 -174q158 -33 266 -33q80 0 126 62.5t46 179.5q0 147 -35.5 206.5t-140.5 59.5h-168v150h148q174 0 174 239q0 229 -154 230q-84 0 -252 -35v149q193 35 248 35q168 0 250 -89t82 -308q0 -238 -158 -285q182 -19 182 -332q0 -223 -85 -320t-261 -97q-111 0 -268 34 v154z" />
<glyph unicode="4" horiz-adv-x="886" d="M102 0v172l203 883h166l-199 -905h240l16 407h154v-407h143v-150h-143v-348h-170v348h-410z" />
<glyph unicode="5" horiz-adv-x="819" d="M113 -178q158 -35 264 -35q164 0 164 274q0 174 -39 234.5t-144 60.5h-225v699h543v-150h-369v-399h41q213 0 291 -97.5t78 -326.5q0 -246 -85 -345t-263 -99q-82 0 -256 34v150z" />
<glyph unicode="6" horiz-adv-x="927" d="M113 778q0 205 29.5 341t89 206t131 96.5t176.5 26.5q106 0 196 -27v-145q-125 29 -217 29q-82 0 -126 -31t-72.5 -132.5t-32.5 -295.5q100 63 217 63q84 0 143.5 -21.5t94 -57t53 -97t24.5 -125t6 -157.5q0 -465 -362 -465q-102 0 -162.5 27.5t-105.5 112.5t-63.5 240.5 t-18.5 411.5zM287 707q0 -250 20.5 -376t54 -162t101.5 -36q188 0 188 299q0 188 -29 259t-133 71q-109 0 -202 -55z" />
<glyph unicode="7" horiz-adv-x="768" d="M61 901v154h625v-199l-330 -1204h-178l342 1249h-459z" />
<glyph unicode="8" horiz-adv-x="995" d="M113 406q0 78 13 135t45 95t53.5 55.5t66.5 45.5q-72 35 -112 121t-40 195q0 215 93.5 305t265.5 90t265 -90t93 -305q0 -106 -35 -173t-127 -118q189 -43 189 -356q0 -217 -90.5 -318.5t-295 -101.5t-294.5 101t-90 319zM289 385q0 -141 49 -197.5t159.5 -56.5t160 56.5 t49.5 197.5q0 174 -51.5 237.5t-227.5 63.5q-84 -47 -111.5 -105.5t-27.5 -195.5zM313 1071q0 -145 49.5 -202.5t194.5 -57.5q125 51 125 260q0 119 -42 175.5t-142.5 56.5t-142.5 -56.5t-42 -175.5z" />
<glyph unicode="9" horiz-adv-x="927" d="M102 614q0 455 355 455q145 0 219 -58.5t106.5 -210t32.5 -452.5q0 -190 -17.5 -321t-47 -208t-84 -117t-110.5 -52t-146 -12q-92 0 -197 30v150q141 -33 217 -33q80 0 119 25.5t62.5 120t27.5 286.5q-98 -61 -215 -61q-195 0 -258.5 110t-63.5 348zM276 633 q0 -188 29 -259t133 -71q100 0 203 55q0 250 -20.5 373t-56.5 157t-107 34q-180 0 -181 -289z" />
<glyph unicode=":" horiz-adv-x="471" d="M133 0v205h205v-205h-205zM133 819v205h205v-205h-205z" />
<glyph unicode=";" horiz-adv-x="471" d="M51 -287l82 287v205h205v-205l-148 -287h-139zM133 819v205h205v-205h-205z" />
<glyph unicode="&#x3c;" horiz-adv-x="1126" d="M174 573v215l778 367v-188l-635 -279l635 -280v-193z" />
<glyph unicode="=" horiz-adv-x="1126" d="M174 358v154h778v-154h-778zM174 768v154h778v-154h-778z" />
<glyph unicode="&#x3e;" horiz-adv-x="1126" d="M174 215v193l647 280l-647 279v188l778 -367v-215z" />
<glyph unicode="?" horiz-adv-x="737" d="M72 1266v149q141 33 229 33q186 0 275.5 -70.5t89.5 -271.5q0 -119 -25 -174t-129 -178l-111 -131v-197h-174v248l123 145q100 119 121 163t21 142q0 94 -44.5 134t-125.5 40q-80 0 -250 -32zM213 0v205h205v-205h-205z" />
<glyph unicode="@" horiz-adv-x="1669" d="M174 707q0 219 34 360t116 227t202.5 120t309.5 34q190 0 307 -24.5t200.5 -93t117.5 -190.5t34 -319q0 -131 -10 -224t-40 -181t-91.5 -133t-155.5 -45q-61 0 -119.5 37.5t-72.5 115.5q-68 -96 -242 -96q-274 0 -275 391q0 244 113 336t316 92q86 0 208 -29v-632 q0 -33 20.5 -57.5t55.5 -24.5q74 0 98.5 108.5t24.5 341.5q0 129 -11 206t-39 136.5t-86.5 87t-139 40t-213.5 12.5q-158 0 -251 -26t-148.5 -98.5t-74 -180t-18.5 -291.5q0 -170 16.5 -269.5t67.5 -174.5t146.5 -103.5t252.5 -28.5q92 0 322 25v-146q-172 -25 -322 -24 q-199 0 -324.5 37.5t-199.5 128t-101.5 220.5t-27.5 335zM653 694q0 -154 38 -205t116 -51q82 0 121 42t39 95v392q-41 10 -76 10q-111 0 -174.5 -59.5t-63.5 -223.5z" />
<glyph unicode="A" horiz-adv-x="1024" d="M51 0l346 1434h236l340 -1434h-182l-78 362h-400l-80 -362h-182zM346 516h334l-168 782z" />
<glyph unicode="B" horiz-adv-x="1048" d="M174 0v1434q190 14 324 14q193 0 293 -88t100 -287q0 -119 -48 -199.5t-116 -109.5q199 -70 199 -332q0 -244 -103.5 -345t-300.5 -101q-76 0 -163 3t-136 7zM352 145q102 -10 189 -10q96 0 149 58.5t53 224.5q0 137 -45 199.5t-155 62.5h-191v-535zM352 827h170 q39 0 65.5 6.5t58.5 28t49.5 70.5t17.5 127q0 133 -40 187t-151 54q-43 0 -86 -3t-63 -6l-21 -3v-461z" />
<glyph unicode="C" horiz-adv-x="866" d="M133 739q0 180 17.5 306t49 205t88 123t122 59.5t161.5 15.5q92 0 203 -29v-151q-107 26 -230 26h-9q-82 0 -125 -37.5t-69 -163.5t-26 -368q0 -252 27 -382t70 -167t125 -37q110 0 237 31v-150q-123 -34 -221 -34h-6q-154 0 -240 60t-130 225t-44 468z" />
<glyph unicode="D" horiz-adv-x="1077" d="M174 0v1434q190 14 332 14q92 0 156.5 -15.5t122 -59.5t90 -123t51 -205t18.5 -306q0 -299 -48 -467t-134 -227t-232 -59zM352 143q111 -8 197 -8q213 0 213 590q0 233 -28.5 364.5t-72 170t-110.5 38.5l-199 -8v-1147z" />
<glyph unicode="E" horiz-adv-x="968" d="M174 0v1434h672v-150h-494v-469h443v-149h-443v-516h494v-150h-672z" />
<glyph unicode="F" horiz-adv-x="937" d="M174 0v1434h672v-150h-494v-489h443v-150h-443v-645h-178z" />
<glyph unicode="G" horiz-adv-x="1024" d="M133 739q0 180 19.5 306t54.5 205t95 123t131 59.5t175 15.5q111 0 230 -29v-147q-134 26 -258 26h-9q-96 0 -146 -38.5t-80 -164.5t-30 -370q0 -254 27 -383t73 -168t134 -39q70 0 162 15v454h-183v150h353v-734q-179 -34 -314 -34h-8q-164 0 -252 61.5t-131 224 t-43 467.5z" />
<glyph unicode="H" horiz-adv-x="1126" d="M174 0v1434h178v-623h422v623h178v-1434h-178v659h-422v-659h-178z" />
<glyph unicode="I" horiz-adv-x="649" d="M92 0v150h144v1134h-144v150h465v-150h-143v-1134h143v-150h-465z" />
<glyph unicode="J" horiz-adv-x="819" d="M72 6v152q106 -18 207 -19q117 0 157.5 67.5t40.5 293.5v784h-330v150h508v-920q0 -219 -38.5 -335t-112.5 -154.5t-213 -38.5q-88 0 -219 20z" />
<glyph unicode="K" horiz-adv-x="1007" d="M174 0v1434h178v-629l383 629h191l-389 -627l409 -807h-201l-319 657l-74 -122v-535h-178z" />
<glyph unicode="L" horiz-adv-x="839" d="M174 0v1434h178v-1278h457v-156h-635z" />
<glyph unicode="M" horiz-adv-x="1290" d="M174 0v1434h289l186 -734l185 734h282v-1434h-170v1286l-219 -805h-170l-219 805v-1286h-164z" />
<glyph unicode="N" horiz-adv-x="1120" d="M174 0v1434h291l315 -1282v1282h166v-1434h-293l-313 1282v-1282h-166z" />
<glyph unicode="O" horiz-adv-x="1122" d="M133 733q0 379 92 547t336 168t336 -168t92 -547q0 -395 -92 -571t-336 -176t-336 176t-92 571zM315 723q0 -330 54.5 -459t191.5 -129t191.5 129t54.5 459q0 334 -53.5 454.5t-192.5 120.5t-192.5 -120.5t-53.5 -454.5z" />
<glyph unicode="P" horiz-adv-x="1024" d="M174 0v1434q176 14 346 14q402 0 402 -444q0 -240 -92.5 -351.5t-305.5 -111.5h-172v-541h-178zM352 690h193q194 0 194 299q0 160 -44 235.5t-150 75.5q-49 0 -97.5 -3t-71.5 -6l-24 -3v-598z" />
<glyph unicode="Q" horiz-adv-x="1122" d="M133 733q0 379 92 547t336 168t336 -168t92 -547q0 -272 -46 -442t-157 -244l244 -47v-172l-469 158q-244 0 -336 176t-92 571zM315 723q0 -330 54.5 -459t191.5 -129t191.5 129t54.5 459q0 334 -53.5 454.5t-192.5 120.5t-192.5 -120.5t-53.5 -454.5z" />
<glyph unicode="R" horiz-adv-x="1054" d="M174 0v1434q176 14 346 14q221 0 309.5 -106.5t88.5 -311.5q0 -328 -205 -407l280 -623h-196l-262 594h-183v-594h-178zM352 743h193q94 0 142 57.5t48 215.5q0 154 -42 219t-148 65q-49 0 -97.5 -3t-71.5 -6l-24 -3v-545z" />
<glyph unicode="S" horiz-adv-x="888" d="M119 1053q0 395 403 395q106 0 217 -31v-149q-127 30 -230 30h-7q-86 0 -143.5 -55t-57.5 -168q0 -125 30.5 -172t127.5 -67q106 -23 171.5 -63t107.5 -130t42 -235q0 -240 -102.5 -331t-302.5 -91q-121 0 -238 30v150q119 -31 258 -31q104 0 153.5 61.5t49.5 190.5 q0 141 -39 200.5t-127 78.5q-172 35 -242.5 120.5t-70.5 266.5z" />
<glyph unicode="T" horiz-adv-x="870" d="M31 1278v156h809v-156h-316v-1278h-178v1278h-315z" />
<glyph unicode="U" horiz-adv-x="1095" d="M164 379v1055h178v-1094q0 -104 55.5 -154.5t151.5 -50.5q205 0 205 205v1094h178v-1055q0 -393 -383 -393q-385 0 -385 393z" />
<glyph unicode="V" horiz-adv-x="968" d="M72 1434h180l225 -1254l244 1254h176l-301 -1434h-244z" />
<glyph unicode="W" horiz-adv-x="1206" d="M133 1434h158l61 -1321l185 716h168l186 -716l63 1321h150l-70 -1434h-278l-138 623l-149 -623h-266z" />
<glyph unicode="X" horiz-adv-x="1015" d="M72 0l348 741l-318 693h195l215 -494l221 494h191l-324 -691l344 -743h-201l-233 549l-246 -549h-192z" />
<glyph unicode="Y" horiz-adv-x="1005" d="M41 1434h197l270 -596l270 596h187l-373 -768v-666h-184v666z" />
<glyph unicode="Z" horiz-adv-x="892" d="M92 0v180l529 1102h-482v152h662v-181l-527 -1101h506v-152h-688z" />
<glyph unicode="[" d="M174 -246v1925h389v-153h-225v-1618h225v-154h-389z" />
<glyph unicode="\" d="M10 1659h162l483 -1884h-161z" />
<glyph unicode="]" d="M102 -92h226v1618h-226v153h390v-1925h-390v154z" />
<glyph unicode="^" horiz-adv-x="997" d="M92 860l295 696h234l284 -696h-186l-213 574l-234 -574h-180z" />
<glyph unicode="_" horiz-adv-x="1044" d="M6 -195h1032v-153h-1032v153z" />
<glyph unicode="`" horiz-adv-x="620" d="M96 1464h223l213 -276h-165z" />
<glyph unicode="a" horiz-adv-x="985" d="M102 289q0 164 96.5 253t268.5 89h162v110q0 68 -40 109t-114 41q-143 0 -297 -43v149q137 41 277 41q195 0 271.5 -78.5t76.5 -259.5v-491q0 -66 90 -66v-143h-62q-41 0 -87 22.5t-66 77.5q-79 -114 -267 -114h-3q-305 0 -306 303zM281 301q0 -92 41 -130t127 -38 q92 0 136 49t44 94v216h-172q-74 0 -125 -48.5t-51 -142.5z" />
<glyph unicode="b" horiz-adv-x="1021" d="M164 10v1424h174v-486q96 90 227 90q174 0 249 -112t75 -348q0 -336 -95.5 -464t-340.5 -128q-106 0 -289 24zM338 141q61 -8 135 -8q139 0 188.5 99.5t49.5 324.5q0 193 -39.5 263.5t-139.5 70.5q-82 0 -138 -56.5t-56 -117.5v-576z" />
<glyph unicode="c" horiz-adv-x="827" d="M133 532q0 272 85 389t271 117q98 0 226 -30v-152q-133 29 -238 29q-90 0 -128 -85t-38 -308q0 -215 40 -284t126 -69q88 0 238 31v-152q-114 -32 -217 -32h-6q-96 0 -157 19.5t-110 76.5t-70.5 167.5t-21.5 282.5z" />
<glyph unicode="d" horiz-adv-x="1032" d="M133 467q0 303 105.5 437t341.5 134q53 0 114 -8v404h174v-1434h-143l-14 86q-96 -100 -244 -100q-188 0 -261 114.5t-73 366.5zM311 446q0 -178 43.5 -245.5t145.5 -67.5q88 0 141 55.5t53 118.5v576q-61 8 -135 8q-139 0 -193.5 -108.5t-54.5 -336.5z" />
<glyph unicode="e" horiz-adv-x="958" d="M133 512q0 279 92 402.5t281 123.5q330 0 330 -434v-153h-529q4 -188 46 -253t128 -65q133 0 275 33v-148q-114 -32 -246 -32h-8q-96 0 -157.5 18.5t-113 72.5t-75 160.5t-23.5 274.5zM309 590h357v55q0 248 -164 248q-100 0 -142.5 -64.5t-50.5 -238.5z" />
<glyph unicode="f" horiz-adv-x="636" d="M61 874v150h134v160q0 129 70.5 196.5t189.5 67.5q70 0 192 -25v-145q-90 22 -160 22h-6q-53 0 -82.5 -28.5t-29.5 -73.5v-174h247v-150h-247v-874h-174v874h-134z" />
<glyph unicode="g" horiz-adv-x="1067" d="M123 682q0 203 114.5 279.5t311.5 76.5q90 0 160 -28l297 14v-154l-142 7q47 -88 47 -211q0 -344 -413 -344q-77 0 -136 12q-20 -45 -20 -88q0 -27 10 -58q184 16 256 17q166 0 253 -64.5t87 -240.5q0 -145 -106.5 -217t-280.5 -72q-197 0 -391 37v147q197 -35 408 -35 q98 0 145 38t47 102q0 80 -38 115.5t-134 35.5q-158 0 -338 -22q-35 33 -60.5 89t-25.5 103q0 111 55 172q-106 82 -106 289zM297 666q0 -203 201 -203q115 0 177 46t62 173q0 211 -209 211q-129 0 -180 -53.5t-51 -173.5z" />
<glyph unicode="h" horiz-adv-x="1036" d="M164 0v1434h174v-486q100 90 235 90q172 0 241 -85t69 -277v-676h-174v696q0 104 -34 149.5t-132 45.5q-82 0 -143.5 -57.5t-61.5 -116.5v-717h-174z" />
<glyph unicode="i" horiz-adv-x="501" d="M154 1249v185h194v-185h-194zM164 0v1024h174v-1024h-174z" />
<glyph unicode="j" horiz-adv-x="501" d="M-94 -203q86 -8 151 -8q106 0 107 113v1122h174v-1112q0 -121 -65.5 -195.5t-188.5 -74.5q-86 0 -178 10v145zM154 1249v185h194v-185h-194z" />
<glyph unicode="k" horiz-adv-x="950" d="M164 0v1434h174v-779l313 369h213l-346 -395l361 -629h-203l-277 510l-61 -72v-438h-174z" />
<glyph unicode="l" horiz-adv-x="542" d="M164 229v1205h174v-1194q0 -55 14.5 -76t53.5 -21q4 1 55 11v-144q-76 -16 -123 -16q-72 0 -123 54t-51 181z" />
<glyph unicode="m" horiz-adv-x="1495" d="M164 0v1024h143l15 -90q94 104 231 104q170 0 244 -129q98 129 258 129q154 0 220 -86t66 -276v-676h-174v696q0 102 -29.5 148.5t-113.5 46.5q-78 0 -131 -56.5t-53 -117.5v-717h-174v696q0 102 -30 148.5t-114 46.5q-78 0 -131 -56.5t-53 -117.5v-717h-174z" />
<glyph unicode="n" horiz-adv-x="1036" d="M164 0v1024h143l15 -92q100 106 251 106q172 0 241 -85t69 -277v-676h-174v696q0 104 -34 149.5t-132 45.5q-82 0 -143.5 -57.5t-61.5 -116.5v-717h-174z" />
<glyph unicode="o" horiz-adv-x="1044" d="M133 532q0 260 94.5 383t295 123t294.5 -123t94 -383q0 -309 -94 -427.5t-294.5 -118.5t-295 118.5t-94.5 427.5zM311 502q0 -201 48.5 -287t163 -86t162.5 86t48 287q0 221 -45 307t-166 86t-166 -86t-45 -307z" />
<glyph unicode="p" horiz-adv-x="1021" d="M164 -348v1372h143l17 -88q98 102 241 102q174 0 249 -112.5t75 -347.5q0 -336 -95.5 -464t-340.5 -128q-53 0 -115 8v-342h-174zM338 141q61 -8 135 -8q139 0 188.5 99.5t49.5 324.5q0 193 -39.5 263.5t-139.5 70.5q-82 0 -138 -56.5t-56 -117.5v-576z" />
<glyph unicode="q" horiz-adv-x="1032" d="M133 467q0 303 105.5 437t341.5 134q106 0 288 -24v-1362h-174v418q-94 -84 -227 -84q-188 0 -261 114.5t-73 366.5zM311 446q0 -178 43.5 -245.5t145.5 -67.5q88 0 141 55.5t53 118.5v576q-61 8 -135 8q-139 0 -193.5 -108.5t-54.5 -336.5z" />
<glyph unicode="r" horiz-adv-x="692" d="M164 0v1024h143l12 -104q79 118 211 118h2q68 0 109 -10v-182q-78 18 -123 18q-94 0 -137 -68.5t-43 -164.5v-631h-174z" />
<glyph unicode="s" horiz-adv-x="823" d="M123 729q0 158 94 233.5t250 75.5q80 0 219 -34v-150q-158 37 -235 37q-150 0 -150 -152q0 -113 131 -133q156 -25 222.5 -98.5t66.5 -210.5q0 -311 -344 -311q-125 0 -246 32v150q164 -33 260 -33q74 0 111 45t37 107q0 76 -27 109.5t-102 47.5q-152 27 -219.5 97.5 t-67.5 187.5z" />
<glyph unicode="t" horiz-adv-x="657" d="M51 870v154h133v246h174v-246h238v-154h-238v-624q0 -41 22.5 -77t80 -36t135.5 21v-144q-77 -24 -169 -24h-7q-119 0 -177.5 73.5t-58.5 196.5v614h-133z" />
<glyph unicode="u" horiz-adv-x="1005" d="M154 356v668h174v-688q0 -106 29.5 -154.5t117.5 -48.5q80 0 134.5 54.5t58.5 113.5v723h174v-1024h-144l-14 84q-88 -98 -235 -98q-166 0 -230.5 88t-64.5 282z" />
<glyph unicode="v" horiz-adv-x="946" d="M72 1024h186l221 -879l215 879h180l-274 -1024h-252z" />
<glyph unicode="w" horiz-adv-x="1372" d="M82 1024h180l166 -893l182 709h174l170 -709l166 893h170l-203 -1024h-268l-129 555l-141 -555h-262z" />
<glyph unicode="x" horiz-adv-x="950" d="M82 0l297 528l-273 496h201l176 -338l179 338h190l-277 -487l304 -537h-205l-195 379l-205 -379h-192z" />
<glyph unicode="y" horiz-adv-x="948" d="M72 1024h188l238 -846l200 846h179l-297 -1114q-37 -139 -88.5 -203.5t-165.5 -64.5q-43 0 -117 12v149q57 -8 106 -8q57 0 82 92l33 113h-41z" />
<glyph unicode="z" horiz-adv-x="825" d="M92 0v164l445 708h-404v152h590v-182l-442 -690h421v-152h-610z" />
<glyph unicode="{" d="M72 604v225q72 0 119 39t47 154v408q0 137 51 198.5t172 61.5q41 0 92 -11v-139q-37 6 -64 6q-92 0 -92 -86v-499q0 -109 -65.5 -171.5t-149.5 -74.5q82 -8 148.5 -70.5t66.5 -171.5v-500q0 -86 92 -86q27 0 64 7v-140q-51 -10 -92 -10q-121 0 -172 61.5t-51 198.5v408 q0 115 -47 153.5t-119 38.5z" />
<glyph unicode="|" horiz-adv-x="593" d="M215 -225v1884h164v-1884h-164z" />
<glyph unicode="}" d="M113 -106q37 -6 63 -7q92 0 92 86v500q0 109 66.5 171.5t148.5 70.5q-84 12 -149.5 74.5t-65.5 171.5v499q0 86 -92 86q-27 0 -63 -6v139q51 10 92 11q121 0 172 -61.5t51 -198.5v-408q0 -115 47 -154t119 -39v-225q-72 0 -119 -39t-47 -153v-408q0 -137 -51 -198.5 t-172 -61.5q-41 0 -92 10v140z" />
<glyph unicode="~" horiz-adv-x="1044" d="M174 545v160q111 68 209 67q55 0 149.5 -40t147.5 -40q82 0 190 74v-160q-100 -68 -208 -67q-57 0 -148.5 39.5t-148.5 39.5q-82 1 -191 -73z" />
<glyph unicode="&#xa2;" horiz-adv-x="962" d="M203 530q0 244 67.5 362t214.5 138v199h164v-199q55 -6 135 -24v-152q-133 29 -237 29q-90 0 -128 -85t-38 -309q0 -215 40 -283.5t126 -68.5q88 0 237 31v-152q-53 -16 -135 -26v-215h-164v213q-150 14 -216 129.5t-66 412.5z" />
<glyph unicode="&#xa3;" horiz-adv-x="962" d="M135 0v150h144v546h-144v150h144v115q0 201 38.5 307t114.5 143t213 37q78 0 197 -18v-154q-102 18 -185 18q-125 0 -162.5 -57t-37.5 -262v-129h262v-150h-262v-546h405v-150h-727z" />
<glyph unicode="&#xa5;" horiz-adv-x="962" d="M41 1434h197l249 -560l248 560h187l-347 -738h263v-153h-267v-154h267v-153h-267v-236h-184v236h-266v153h266v154h-266v153h260z" />
<glyph unicode="&#xa9;" horiz-adv-x="1638" d="M174 717q0 731 655 731q338 0 486.5 -187.5t148.5 -543.5q0 -358 -148.5 -544.5t-486.5 -186.5q-340 0 -497.5 186t-157.5 545zM332 717q0 -293 110.5 -442.5t386.5 -149.5q143 0 238.5 40t147 122t72 184t20.5 245.5t-20.5 246t-72 184.5t-146.5 122t-239 40 q-276 0 -386.5 -148.5t-110.5 -443.5zM598 729q0 233 59.5 310t194.5 77q70 0 113 -16v-99q-55 12 -129 13q-47 0 -70 -15.5t-37 -80t-14 -197.5q0 -137 15 -203.5t38 -82t70 -15.5q70 0 127 12v-98q-66 -16 -125 -17q-129 0 -185.5 86t-56.5 326z" />
<glyph unicode="&#xad;" horiz-adv-x="1013" d="M174 563v154h666v-154h-666z" />
<glyph unicode="&#xae;" horiz-adv-x="1638" d="M174 717q0 731 655 731q338 0 486.5 -187.5t148.5 -543.5q0 -358 -148.5 -544.5t-486.5 -186.5q-340 0 -497.5 186t-157.5 545zM332 717q0 -293 110.5 -442.5t386.5 -149.5q143 0 238.5 40t147 122t72 184t20.5 245.5t-20.5 246t-72 184.5t-146.5 122t-239 40 q-276 0 -386.5 -148.5t-110.5 -443.5zM635 326v788q90 6 184 6q123 0 174 -59t51 -170q0 -180 -112 -227l153 -338h-124l-138 321h-78v-321h-110zM745 745h89q51 0 74.5 26t23.5 112q0 84 -19.5 113.5t-78.5 29.5l-89 -4v-277z" />
<glyph unicode="&#xb4;" horiz-adv-x="620" d="M92 1188l213 276h223l-270 -276h-166z" />
<glyph unicode="&#x2000;" horiz-adv-x="845" />
<glyph unicode="&#x2001;" horiz-adv-x="1690" />
<glyph unicode="&#x2002;" horiz-adv-x="845" />
<glyph unicode="&#x2003;" horiz-adv-x="1690" />
<glyph unicode="&#x2004;" horiz-adv-x="563" />
<glyph unicode="&#x2005;" horiz-adv-x="422" />
<glyph unicode="&#x2006;" horiz-adv-x="281" />
<glyph unicode="&#x2007;" horiz-adv-x="281" />
<glyph unicode="&#x2008;" horiz-adv-x="211" />
<glyph unicode="&#x2009;" horiz-adv-x="338" />
<glyph unicode="&#x200a;" horiz-adv-x="93" />
<glyph unicode="&#x2010;" horiz-adv-x="1013" d="M174 563v154h666v-154h-666z" />
<glyph unicode="&#x2011;" horiz-adv-x="1013" d="M174 563v154h666v-154h-666z" />
<glyph unicode="&#x2012;" horiz-adv-x="1013" d="M174 563v154h666v-154h-666z" />
<glyph unicode="&#x2013;" horiz-adv-x="1126" d="M174 563v154h778v-154h-778z" />
<glyph unicode="&#x2014;" horiz-adv-x="1239" d="M133 563v154h973v-154h-973z" />
<glyph unicode="&#x2018;" horiz-adv-x="460" d="M113 926v184l123 322h133l-62 -322v-184h-194z" />
<glyph unicode="&#x2019;" horiz-adv-x="460" d="M92 928l62 321v185h194v-185l-123 -321h-133z" />
<glyph unicode="&#x201c;" horiz-adv-x="778" d="M113 926v184l123 322h133l-62 -322v-184h-194zM430 926v184l123 322h133l-61 -322v-184h-195z" />
<glyph unicode="&#x201d;" horiz-adv-x="778" d="M92 928l62 321v185h194v-185l-123 -321h-133zM410 928l61 321v185h195v-185l-123 -321h-133z" />
<glyph unicode="&#x2022;" horiz-adv-x="593" d="M143 481v318h308v-318h-308z" />
<glyph unicode="&#x2026;" horiz-adv-x="1372" d="M133 0v205h205v-205h-205zM584 0v205h204v-205h-204zM1034 0v205h205v-205h-205z" />
<glyph unicode="&#x202f;" horiz-adv-x="338" />
<glyph unicode="&#x205f;" horiz-adv-x="422" />
<glyph unicode="&#x20ac;" horiz-adv-x="962" d="M113 485l41 150h82v199h-123l41 149h90q14 143 46 236.5t87 142.5t122.5 67.5t170.5 18.5q98 0 202 -35l-41 -141q-123 27 -198 26q-96 0 -143.5 -63.5t-63.5 -251.5h334l-41 -149h-301v-199h280l-41 -150h-233q14 -211 62.5 -280.5t148.5 -69.5q78 0 196 29v-146 q-121 -33 -186 -32q-195 0 -286 105.5t-115 393.5h-131z" />
<glyph unicode="&#x2122;" horiz-adv-x="1515" d="M82 1313v121h819l127 -486l123 486h231v-1037h-135v922l-160 -580h-129l-161 580v-922h-133v916h-205v-916h-140v916h-237z" />
<glyph unicode="&#xe000;" horiz-adv-x="1025" d="M0 1025h1025v-1025h-1025v1025z" />
</font>
</defs>
</svg>
